<svg xmlns="http://www.w3.org/2000/svg" width="40" height="40" fill="none" viewBox="0 0 40 40"><g clip-path="url(#clip0_287_17962)"><mask id="mask0_287_17962" style="mask-type:luminance" width="40" height="40" x="0" y="0" maskUnits="userSpaceOnUse"><path fill="#fff" fill-rule="evenodd" d="M11.6788 0.000702178L28.0352 0C32.1956 0 33.7043 0.433186 35.2253 1.24662C36.7463 2.06005 37.9399 3.25373 38.7534 4.77472L38.8644 4.98714C39.6062 6.44179 40 7.99789 40 11.9648V28.0352L39.9972 28.5988C39.9589 32.336 39.529 33.775 38.7534 35.2253C37.9399 36.7463 36.7463 37.9399 35.2253 38.7534L35.0129 38.8644C33.5582 39.6062 32.0021 40 28.0352 40H11.9648L11.4012 39.9972C7.66401 39.9589 6.22496 39.529 4.77472 38.7534C3.25373 37.9399 2.06005 36.7463 1.24662 35.2253L1.13559 35.0129C0.393827 33.5582 0 32.0021 0 28.0352V11.9648C0 7.80438 0.433186 6.29571 1.24662 4.77472C2.06005 3.25373 3.25373 2.06005 4.77472 1.24662L4.98714 1.13559C6.40631 0.411919 7.92204 0.0194181 11.6788 0.000702178Z" clip-rule="evenodd"/></mask><g mask="url(#mask0_287_17962)"><rect width="40" height="40" fill="#F86601"/></g><path fill="#fff" d="M25.4304 19.2439C23.837 17.6559 21.7215 16.7878 19.4705 16.7935C14.8543 16.8095 11.0986 20.6151 11.0986 25.2769V26.4643C11.0986 28.1436 11.9595 29.6598 13.4014 30.5204C14.8433 31.3809 16.5866 31.4189 18.0645 30.6217C18.9634 30.1369 20.0368 30.1369 20.9357 30.6217C21.6437 31.0036 22.4123 31.1938 23.1799 31.1938C24.0144 31.1937 24.8477 30.9687 25.5988 30.5204C27.0407 29.6598 27.9016 28.1435 27.9016 26.4643V25.1949C27.9015 22.9453 27.024 20.8319 25.4304 19.2439Z"/><path fill="#fff" d="M10.5366 14.6877L10.0819 14.3573C8.65377 13.3197 6.64778 13.6375 5.61029 15.0656H5.61024C4.57269 16.4937 4.89039 18.4996 6.31853 19.5372L6.77324 19.8676C7.34022 20.2796 7.99827 20.4779 8.65071 20.4779C9.64153 20.4779 10.6193 20.0204 11.245 19.1594C12.2824 17.7313 11.9647 15.7253 10.5366 14.6877Z"/><path fill="#fff" d="M33.3894 15.1418C32.3519 13.7137 30.3458 13.3959 28.9177 14.4335L28.463 14.7639C27.035 15.8015 26.7172 17.8075 27.7548 19.2356C28.3805 20.0968 29.3581 20.5541 30.349 20.5541C31.0013 20.5541 31.6596 20.3557 32.2265 19.9438L32.6812 19.6134C34.1093 18.5758 34.427 16.5699 33.3894 15.1418Z"/><path fill="#fff" d="M18.4024 11.4425L17.9402 10.0199C17.676 9.20661 17.1108 8.54493 16.3488 8.15672C15.587 7.76844 14.7194 7.70019 13.9062 7.96448C13.093 8.22871 12.4312 8.79381 12.0429 9.55574C11.6547 10.3177 11.5864 11.1852 11.8507 11.9984L12.313 13.4211C12.7521 14.7725 14.0102 15.6335 15.3599 15.6335C15.6869 15.6335 16.0196 15.5829 16.347 15.4765H16.347C17.1602 15.2123 17.8219 14.6471 18.2102 13.8852C18.5984 13.1233 18.6666 12.2558 18.4024 11.4425Z"/><path fill="#fff" d="M25.0939 7.99291C23.415 7.4474 21.6054 8.36952 21.06 10.0483L20.5977 11.4709C20.3335 12.2842 20.4018 13.1517 20.7899 13.9136C21.1781 14.6756 21.8399 15.2407 22.6531 15.5049C22.9806 15.6113 23.313 15.6619 23.6401 15.6619C24.9898 15.6619 26.248 14.8009 26.6871 13.4495L27.1494 12.0269C27.6948 10.348 26.7727 8.53842 25.0939 7.99291Z"/></g><defs><clipPath id="clip0_287_17962"><rect width="40" height="40" fill="#fff"/></clipPath></defs></svg>