<svg xmlns="http://www.w3.org/2000/svg" width="92" height="15" fill="none" viewBox="0 0 92 15"><path fill="#787880" fill-opacity=".36" fill-rule="evenodd" d="M88.276 14.3828C88.5563 14.1709 88.6178 13.8223 88.4469 13.3301L87.0182 9.07129L90.6686 6.45312C91.0925 6.15234 91.2634 5.83105 91.154 5.49609C91.0446 5.16113 90.7233 4.99707 90.1969 5.00391L85.7194 5.03809L84.3591 0.758789C84.195 0.259766 83.9489 0 83.5934 0C83.2448 0 82.9987 0.259766 82.8346 0.758789L81.4743 5.03809L76.9968 5.00391C76.4704 4.99707 76.1491 5.16113 76.0397 5.49609C75.9235 5.83105 76.1012 6.15234 76.5251 6.45312L80.1755 9.07129L78.7468 13.3301C78.5759 13.8223 78.6374 14.1709 78.9176 14.3828C79.1979 14.6016 79.5534 14.5264 79.9772 14.2188L83.5934 11.5596L87.2165 14.2188C87.6403 14.5264 87.9889 14.6016 88.276 14.3828Z" clip-rule="evenodd"/><path fill="#F2994A" fill-rule="evenodd" d="M69.2751 14.3828C69.5553 14.1709 69.6169 13.8223 69.446 13.3301L68.0173 9.07129L71.6676 6.45312C72.0915 6.15234 72.2624 5.83105 72.153 5.49609C72.0436 5.16113 71.7223 4.99707 71.196 5.00391L66.7184 5.03809L65.3581 0.758789C65.194 0.259766 64.9479 0 64.5925 0C64.2438 0 63.9977 0.259766 63.8337 0.758789L62.4733 5.03809L57.9958 5.00391C57.4694 4.99707 57.1481 5.16113 57.0387 5.49609C56.9225 5.83105 57.1003 6.15234 57.5241 6.45312L61.1745 9.07129L59.7458 13.3301C59.5749 13.8223 59.6364 14.1709 59.9167 14.3828C60.1969 14.6016 60.5524 14.5264 60.9762 14.2188L64.5925 11.5596L68.2155 14.2188C68.6393 14.5264 68.988 14.6016 69.2751 14.3828Z" clip-rule="evenodd"/><path fill="#F2994A" fill-rule="evenodd" d="M50.2741 14.3828C50.5544 14.1709 50.6159 13.8223 50.445 13.3301L49.0163 9.07129L52.6667 6.45312C53.0905 6.15234 53.2614 5.83105 53.152 5.49609C53.0426 5.16113 52.7214 4.99707 52.195 5.00391L47.7175 5.03809L46.3571 0.758789C46.193 0.259766 45.9469 0 45.5915 0C45.2428 0 44.9968 0.259766 44.8327 0.758789L43.4723 5.03809L38.9948 5.00391C38.4684 4.99707 38.1471 5.16113 38.0378 5.49609C37.9216 5.83105 38.0993 6.15234 38.5231 6.45312L42.1735 9.07129L40.7448 13.3301C40.5739 13.8223 40.6354 14.1709 40.9157 14.3828C41.196 14.6016 41.5514 14.5264 41.9753 14.2188L45.5915 11.5596L49.2145 14.2188C49.6384 14.5264 49.987 14.6016 50.2741 14.3828Z" clip-rule="evenodd"/><path fill="#F2994A" fill-rule="evenodd" d="M31.2721 14.3828C31.5524 14.1709 31.6139 13.8223 31.443 13.3301L30.0143 9.07129L33.6647 6.45312C34.0885 6.15234 34.2594 5.83105 34.1501 5.49609C34.0407 5.16113 33.7194 4.99707 33.193 5.00391L28.7155 5.03809L27.3551 0.758789C27.1911 0.259766 26.945 0 26.5895 0C26.2409 0 25.9948 0.259766 25.8307 0.758789L24.4704 5.03809L19.9928 5.00391C19.4665 4.99707 19.1452 5.16113 19.0358 5.49609C18.9196 5.83105 19.0973 6.15234 19.5212 6.45312L23.1716 9.07129L21.7428 13.3301C21.5719 13.8223 21.6335 14.1709 21.9137 14.3828C22.194 14.6016 22.5495 14.5264 22.9733 14.2188L26.5895 11.5596L30.2126 14.2188C30.6364 14.5264 30.985 14.6016 31.2721 14.3828Z" clip-rule="evenodd"/><path fill="#F2994A" fill-rule="evenodd" d="M12.2712 14.3828C12.5514 14.1709 12.613 13.8223 12.4421 13.3301L11.0134 9.07129L14.6637 6.45312C15.0876 6.15234 15.2585 5.83105 15.1491 5.49609C15.0397 5.16113 14.7184 4.99707 14.1921 5.00391L9.71452 5.03809L8.35417 0.758789C8.19011 0.259766 7.94402 0 7.58855 0C7.23991 0 6.99382 0.259766 6.82976 0.758789L5.46941 5.03809L0.991868 5.00391C0.465501 4.99707 0.144212 5.16113 0.0348367 5.49609C-0.0813742 5.83105 0.0963601 6.15234 0.520188 6.45312L4.17058 9.07129L2.74187 13.3301C2.57097 13.8223 2.63249 14.1709 2.91277 14.3828C3.19304 14.6016 3.54851 14.5264 3.97234 14.2188L7.58855 11.5596L11.2116 14.2188C11.6354 14.5264 11.9841 14.6016 12.2712 14.3828Z" clip-rule="evenodd"/></svg>