<svg width="26" height="23" viewBox="0 0 26 23" fill="none" xmlns="http://www.w3.org/2000/svg">
<path d="M10.2578 14.2031C10.2578 15.9082 11.5762 17.0947 13.4219 17.0947C15.0742 17.0947 17.5264 15.8818 17.5264 12.6123V1.10742C17.5264 0.729492 17.21 0.421875 16.8408 0.421875C16.4541 0.421875 16.1377 0.729492 16.1377 1.10742V9.43945C16.1377 10.0371 15.8916 10.4326 15.3643 10.5381L13.5625 10.916C11.3125 11.3818 10.2578 12.498 10.2578 14.2031ZM0.0625 19.9863C0.0625 21.6914 1.37207 22.8779 3.22656 22.8779C4.87891 22.8779 7.33105 21.665 7.33105 18.3955V6.89062C7.33105 6.5127 7.01465 6.20508 6.63672 6.20508C6.25879 6.20508 5.94238 6.5127 5.94238 6.89062V15.2227C5.94238 15.8203 5.6875 16.2158 5.16895 16.3213L3.3584 16.6992C1.11719 17.165 0.0625 18.2812 0.0625 19.9863ZM18.6602 19.9951C18.6602 21.6914 19.9785 22.8779 21.8242 22.8779C23.4766 22.8779 25.9287 21.6738 25.9287 18.4043V6.89062C25.9287 6.52148 25.6123 6.20508 25.2432 6.20508C24.8564 6.20508 24.54 6.52148 24.54 6.89062V15.2314C24.54 15.8291 24.2939 16.2246 23.7666 16.3301L21.9561 16.6992C19.7148 17.1738 18.6602 18.29 18.6602 19.9951Z" fill="#999999"/>
</svg>
