<svg xmlns="http://www.w3.org/2000/svg" width="28" height="25" fill="none" viewBox="0 0 28 25"><path fill="#999" d="M0.754883 11.8896C0.754883 12.2852 1.0625 12.6631 1.58984 12.6631C1.85352 12.6631 2.07324 12.5137 2.2666 12.3467L3.90137 10.9756V22.1025C3.90137 23.6318 4.78027 24.4932 6.32715 24.4932H21.6289C23.1758 24.4932 24.0547 23.6318 24.0547 22.1025V10.9316L25.7422 12.3467C25.9443 12.5137 26.1553 12.6631 26.4277 12.6631C26.8848 12.6631 27.2451 12.373 27.2451 11.916C27.2451 11.626 27.1484 11.4326 26.9375 11.248L24.0547 8.82227V4.11133C24.0547 3.67188 23.7646 3.39062 23.3252 3.39062H22.209C21.7695 3.39062 21.4707 3.67188 21.4707 4.11133V6.65137L15.292 1.45703C14.501 0.780273 13.543 0.780273 12.7432 1.45703L1.07129 11.248C0.851562 11.4326 0.754883 11.6611 0.754883 11.8896ZM6.65234 22.9375C5.86133 22.9375 5.45703 22.5244 5.45703 21.7246V9.6748L13.5869 2.85449C13.8506 2.61719 14.1582 2.6084 14.4482 2.85449L22.499 9.62207V21.7246C22.499 22.5244 22.0947 22.9375 21.2949 22.9375H6.65234ZM17.1025 12.6191C17.6387 12.4961 17.7969 12.3643 17.7969 11.7139V9.54297C17.7969 9.12109 17.6562 8.92773 17.0586 9.07715L13.8066 9.87695C13.2529 10.0088 13.1387 10.123 13.1387 10.791V15.9941C13.1387 16.4951 13.0947 16.5918 12.5234 16.7412L11.4775 17.0225C10.4492 17.2949 9.60547 17.8926 9.60547 18.9824C9.60547 19.9404 10.3174 20.626 11.4424 20.626C13.042 20.626 14.1055 19.4922 14.1055 17.8662V13.832C14.1055 13.4102 14.1934 13.3135 14.4482 13.252L17.1025 12.6191Z"/></svg>