<svg xmlns="http://www.w3.org/2000/svg" width="20" height="26" fill="none" viewBox="0 0 20 26"><path fill="#999" d="M2.83691 23.2979L15.6426 25.5566C17.9014 25.9521 19.29 24.7129 19.29 22.2783V8.22461C19.29 7.03809 18.9473 6.23828 18.2793 5.70215V3.39062C18.2793 1.13184 16.7588 0.0507812 14.21 0.507812L2.48535 2.57324C1.37793 2.72266 0.709961 3.54004 0.709961 4.81445V20.8369C0.709961 22.2256 1.41309 23.043 2.83691 23.2979ZM15.9414 4.80566L7.09082 3.25L14.7461 1.95801C15.9854 1.75586 16.7236 2.26562 16.7236 3.34668V4.98145C16.4775 4.91113 16.2139 4.8584 15.9414 4.80566ZM3.19727 21.7598C2.57324 21.6543 2.26562 21.2852 2.26562 20.626V5.07812C2.26562 4.38379 2.73145 4.03223 3.4873 4.16406L15.8623 6.34375C17.1016 6.56348 17.7344 7.09961 17.7344 8.18066V22.1289C17.7344 23.5 16.917 24.1855 15.6074 23.9482L3.19727 21.7598ZM5.10449 9.15625L14.0957 10.7383C14.5615 10.8174 14.8516 10.5273 14.8516 10.123C14.8516 9.74512 14.6582 9.55176 14.3066 9.48145L5.35059 7.91699C4.89355 7.83789 4.57715 8.11035 4.57715 8.50586C4.57715 8.85742 4.76172 9.10352 5.10449 9.15625ZM5.10449 13.5332L14.0957 15.1152C14.5615 15.1943 14.8516 14.9043 14.8516 14.4912C14.8516 14.1221 14.6582 13.9199 14.3066 13.8584L5.35059 12.2939C4.89355 12.2148 4.57715 12.4873 4.57715 12.8828C4.57715 13.2344 4.76172 13.4717 5.10449 13.5332Z"/></svg>