<svg xmlns="http://www.w3.org/2000/svg" width="24" height="24" fill="none" viewBox="0 0 24 24"><path fill="#999" d="M11.9912 23.0977C18.2578 23.0977 23.4434 17.9121 23.4434 11.6543C23.4434 5.3877 18.249 0.202148 11.9824 0.202148C5.72461 0.202148 0.547852 5.3877 0.547852 11.6543C0.547852 17.9121 5.7334 23.0977 11.9912 23.0977ZM11.9912 15.4688C8.48438 15.4688 5.80371 16.8223 4.71387 18.2285C3.14941 16.4971 2.19141 14.1855 2.19141 11.6543C2.19141 6.21387 6.55078 1.8457 11.9824 1.8457C17.4229 1.8457 21.791 6.21387 21.7998 11.6543C21.8086 14.1943 20.8506 16.5059 19.2773 18.2461C18.1875 16.8223 15.5068 15.4688 11.9912 15.4688ZM11.9912 13.5352C14.1709 13.5527 15.8672 11.6895 15.8672 9.26367C15.8672 6.97852 14.1533 5.08008 11.9912 5.08008C9.8291 5.08008 8.10645 6.97852 8.11523 9.26367C8.12402 11.6895 9.81152 13.5176 11.9912 13.5352Z"/></svg>